<svg id="Ebene_1" data-name="Ebene 1" xmlns="http://www.w3.org/2000/svg" viewBox="0 0 283.47 85.065"><defs><style>.cls-1{fill:#fff;}</style></defs><title>grstiftung_logo17_white</title><polygon class="cls-1" points="18.93 84.855 28.58 84.855 28.58 83.285 20.66 83.285 20.66 76.965 27.98 76.965 27.98 75.385 20.66 75.385 20.66 70.035 28.58 70.035 28.58 68.455 18.93 68.455 18.93 84.855"/><path class="cls-1" d="M43.74,76.33a3.93,3.93,0,0,0,1.93-3.45v-.27c0-1-.34-4.21-4.65-4.21h-5.3V84.8h5.42c3.81,0,4.83-2.7,4.83-4.3v-.56A3.76,3.76,0,0,0,43.74,76.33Zm-6.29-6.35h3.52c2,0,3,.87,3,2.66v.2c0,2.41-1.51,2.72-2.83,2.72H37.45Zm6.8,10.46c0,2.41-2,2.77-3.15,2.77H37.45V77.17h3.77c1.38,0,3,.49,3,2.83Z" transform="translate(0 0.045)"/><polygon class="cls-1" points="53.48 84.855 63.13 84.855 63.13 83.285 55.2 83.285 55.2 76.965 62.53 76.965 62.53 75.385 55.2 75.385 55.2 70.035 63.13 70.035 63.13 68.455 53.48 68.455 53.48 84.855"/><path class="cls-1" d="M80.39,73.47v-.79c0-.44-.14-4.27-4.83-4.27h-5.3v16.4h1.73v-7H75.2l3.6,7h2l-3.77-7.14A4.21,4.21,0,0,0,80.39,73.47Zm-8.4,2.77V69.98h3.52c1.18,0,3.15.36,3.15,2.77v.7c0,2.52-2.17,2.79-3.1,2.79Z" transform="translate(0 0.045)"/><polygon class="cls-1" points="86.51 70.055 90.98 70.055 90.98 84.855 92.71 84.855 92.71 70.055 97.18 70.055 97.18 68.455 86.51 68.455 86.51 70.055"/><path class="cls-1" d="M120.21,73.47v-.79c0-.44-.14-4.27-4.83-4.27h-5.3v16.4h1.73v-7h3.21l3.6,7h2l-3.77-7.14A4.21,4.21,0,0,0,120.21,73.47Zm-8.4,2.77V69.98h3.52c1.18,0,3.15.36,3.15,2.77v.7c0,2.52-2.17,2.79-3.1,2.79Z" transform="translate(0 0.045)"/><path class="cls-1" d="M135.82,80.65c0,2.59-2.54,2.79-3.32,2.79s-3.35-.2-3.35-2.79V68.41h-1.7V80.65c0,1.51,1.07,4.36,5.1,4.36s5-2.73,5-4.34V68.41h-1.73Z" transform="translate(0 0.045)"/><polygon class="cls-1" points="145.18 84.855 146.91 84.855 146.91 76.985 154.24 76.985 154.24 75.415 146.91 75.415 146.91 70.035 154.84 70.035 154.84 68.455 145.18 68.455 145.18 84.855"/><path class="cls-1" d="M174.07,76.55c-1.35-.67-2.5-1.2-3.62-1.71l-.49-.23a2.47,2.47,0,0,1-1.68-2.22c0-1.57,1.26-2.59,3.2-2.59s3.37,1,3.37,2.72v.18h1.73v-.18c0-2.49-2.15-4.3-5.1-4.3s-4.92,1.72-4.92,4.09a4,4,0,0,0,2.41,3.56l1.69.81c.83.4,1.7.8,2.63,1.28a2.81,2.81,0,0,1,1.84,2.65c0,1.7-1.48,2.84-3.7,2.84s-3.45-1.1-3.45-2.79v-.18h-1.73v.18c0,2.53,2.19,4.36,5.2,4.36s5.4-1.88,5.4-4.36A4.54,4.54,0,0,0,174.07,76.55Z" transform="translate(0 0.045)"/><polygon class="cls-1" points="180.68 70.055 185.15 70.055 185.15 84.855 186.88 84.855 186.88 70.055 191.35 70.055 191.35 68.455 180.68 68.455 180.68 70.055"/><rect class="cls-1" x="197.27" y="68.455" width="1.73" height="16.4"/><polygon class="cls-1" points="206.88 84.855 208.61 84.855 208.61 76.985 215.94 76.985 215.94 75.415 208.61 75.415 208.61 70.035 216.53 70.035 216.53 68.455 206.88 68.455 206.88 84.855"/><polygon class="cls-1" points="220.96 70.055 225.43 70.055 225.43 84.855 227.16 84.855 227.16 70.055 231.63 70.055 231.63 68.455 220.96 68.455 220.96 70.055"/><path class="cls-1" d="M245.57,80.65c0,2.59-2.54,2.79-3.32,2.79s-3.35-.2-3.35-2.79V68.41h-1.73V80.65c0,1.51,1.07,4.36,5.1,4.36s5-2.73,5-4.34V68.41h-1.73Z" transform="translate(0 0.045)"/><polygon class="cls-1" points="263.44 82.135 257.06 68.455 254.92 68.455 254.92 84.855 256.65 84.855 256.65 71.355 262.96 84.855 265.17 84.855 265.17 68.455 263.44 68.455 263.44 82.135"/><circle class="cls-1" cx="132.49" cy="69.495" r="1.39"/><path class="cls-1" d="M6.25,68.25c-4.16,0-5.07,3.1-5.07,4.3v8.1c0,1.21.9,4.36,5,4.36s5.1-3.13,5.1-4.34V75.86h-5l-.16,1.57H9.5v3.22c0,2.57-2.54,2.77-3.32,2.77S2.9,83.17,2.9,80.65V72.59c0-2.48,2.34-2.75,3.35-2.75s3.32.27,3.32,2.72v.18H11.3v-.17C11.3,71.08,10.24,68.25,6.25,68.25Z" transform="translate(0 0.045)"/><path class="cls-1" d="M277.88,68.25c-4.16,0-5.07,3.1-5.07,4.3v8.1c0,1.21.9,4.36,5,4.36s5.1-3.13,5.1-4.34V75.86h-5l-.16,1.57h3.38v3.22c0,2.57-2.54,2.77-3.32,2.77s-3.35-.2-3.35-2.77V72.59c0-2.48,2.34-2.75,3.35-2.75s3.32.27,3.32,2.72v.18h1.73v-.17C282.93,71.08,281.88,68.25,277.88,68.25Z" transform="translate(0 0.045)"/><path class="cls-1" d="M20.04,52.17a6.31,6.31,0,0,0-3.19-5,6.61,6.61,0,0,0,2.83-4.88v-.42c0-4-2.46-7.43-8.23-7.43H1.13v26.1h10.8c5.18,0,8.14-3.24,8.14-7.57C20.07,52.76,20.06,52.33,20.04,52.17ZM6.95,39.59h4.19c1.62,0,2.67.82,2.71,2.35v.2a2.34,2.34,0,0,1-2.66,2.49H6.95Zm7.29,13.36a2.51,2.51,0,0,1-2.621,2.393q-.084,0-.169-.013H6.95V49.84h4.5a2.5,2.5,0,0,1,2.76,2.65A1.194,1.194,0,0,1,14.24,52.95Z" transform="translate(0 0.045)"/><polygon class="cls-1" points="43.37 39.615 43.37 34.425 25.96 34.425 25.96 60.595 43.37 60.595 43.37 55.415 31.79 55.415 31.79 49.835 41.9 49.835 41.9 44.655 31.79 44.655 31.79 39.615 43.37 39.615"/><polygon class="cls-1" points="79.76 34.425 73.67 34.425 70.04 49.625 65.62 34.425 61.26 34.425 56.83 49.645 53.2 34.425 47.12 34.425 54.04 60.595 59.08 60.595 63.45 46.405 67.79 60.595 72.86 60.595 79.76 34.425"/><polygon class="cls-1" points="84.32 60.595 101.73 60.595 101.73 55.415 90.15 55.415 90.15 49.835 100.26 49.835 100.26 44.655 90.15 44.655 90.15 39.615 101.73 39.615 101.73 34.425 84.32 34.425 84.32 60.595"/><polygon class="cls-1" points="150.76 39.615 150.76 34.425 133.35 34.425 133.35 60.595 150.76 60.595 150.76 55.415 139.18 55.415 139.18 49.835 149.29 49.835 149.29 44.655 139.18 44.655 139.18 39.615 150.76 39.615"/><polygon class="cls-1" points="176.44 60.595 176.44 34.425 170.62 34.425 170.62 48.905 162.15 34.425 156.83 34.425 156.83 60.595 162.65 60.595 162.65 46.175 171.1 60.595 176.44 60.595"/><path class="cls-1" d="M127.99,45.64h-7.54L120,50.12h2.45V52.7c0,2.51-1.36,3.58-4.54,3.58a5.11,5.11,0,0,1-3.53-1.43c-.66-.87-1.33-1.9-1.33-7.28s.67-6.41,1.33-7.28a5.13,5.13,0,0,1,3.53-1.41A3.55,3.55,0,0,1,121.74,42l6-.72c-.55-5.12-5.4-7.41-10-7.41a11.33,11.33,0,0,0-8,3c-2.7,2.71-2.7,6.35-2.7,10.21v.91c0,3.85,0,7.49,2.7,10.21a11.33,11.33,0,0,0,8,3c5,0,10.29-1.87,10.31-8.36Z" transform="translate(0 0.045)"/><polygon class="cls-1" points="11.96 26.645 16.32 12.465 20.67 26.645 25.73 26.645 32.64 0.475 26.55 0.475 22.91 15.685 18.5 0.485 14.14 0.485 9.7 15.695 6.08 0.475 0 0.475 6.92 26.645 11.96 26.645"/><rect class="cls-1" x="37.39" y="0.475" width="5.83" height="26.17"/><polygon class="cls-1" points="111.94 21.465 100.36 21.465 100.36 15.895 110.47 15.895 110.47 10.715 100.36 10.715 100.36 5.665 111.94 5.665 111.94 0.475 94.54 0.475 94.54 26.645 111.94 26.645 111.94 21.465"/><polygon class="cls-1" points="124.1 12.235 132.55 26.645 137.89 26.645 137.89 0.475 132.07 0.475 132.07 14.965 123.59 0.475 118.28 0.475 118.28 26.645 124.1 26.645 124.1 12.235"/><polygon class="cls-1" points="208.21 26.645 208.21 0.475 202.37 0.475 202.37 10.705 194.88 10.705 194.88 0.475 189.06 0.475 189.06 26.645 194.88 26.645 194.88 15.895 202.37 15.895 202.37 26.645 208.21 26.645"/><path class="cls-1" d="M220.91.43,211.86,26.6h6.08l1.49-4.7h8.24l1.42,4.7h6.07L226.06.43Zm.1,16.56,2.63-8.16,2.49,8.16Z" transform="translate(0 0.045)"/><polygon class="cls-1" points="244.76 5.665 256.34 5.665 256.34 0.475 238.93 0.475 238.93 26.645 244.76 26.645 244.76 16.065 254.87 16.065 254.87 10.885 244.76 10.885 244.76 5.665"/><polygon class="cls-1" points="279.02 0.475 260.1 0.475 260.1 5.675 266.64 5.675 266.64 26.645 272.46 26.645 272.46 5.675 279.02 5.675 279.02 0.475"/><path class="cls-1" d="M165.74,14.24c0,3.76,0,7.31,2.68,10a9.64,9.64,0,0,0,7.31,3c4.83,0,9.23-2.37,9.79-7.6l-6-.55a3.23,3.23,0,0,1-3.357,3.1q-.117,0-.233-.018a3.5,3.5,0,0,1-2.82-1.4c-.62-.82-1.25-1.79-1.32-6.37v-.81c0-5.35.67-6.37,1.33-7.24a3.5,3.5,0,0,1,2.82-1.4,3.14,3.14,0,0,1,3.4,2.858q.01.121.012.242l5.94-.72c-.55-5.09-5-7.37-9.55-7.37a9.64,9.64,0,0,0-7.31,3c-2.69,2.7-2.69,6.32-2.68,10.16Z" transform="translate(0 0.045)"/><path class="cls-1" d="M152.26,21.63a11.84,11.84,0,0,1-1.44,0,6.44,6.44,0,0,1-4.37-1.83h-.08l-3.56,3.37c2,2.55,5.12,3.69,9.08,3.69,5.4,0,9.82-2.95,9.82-8a7.12,7.12,0,0,0-2.6-6,11.41,11.41,0,0,0-5.15-2.22,11.5,11.5,0,0,1-1.27-.27c-.1-.05-1.7-.37-1.79-.48a2.52,2.52,0,0,1-1.53-1,1.87,1.87,0,0,1-.33-1.21c.13-1.18,1.16-2.32,3.27-2.36h.45a5.7,5.7,0,0,1,4.4,1.64l3.59-3.39c-1.76-2.22-4.54-3.4-8.19-3.4-5.68,0-9.23,3.33-9.23,7.9a6.68,6.68,0,0,0,2.34,5.43,12,12,0,0,0,5.31,2.36c.12.06,1.27.26,1.35.3s1.58.34,1.68.43a2.65,2.65,0,0,1,1.54.9,2.11,2.11,0,0,1,.38,1,3.151,3.151,0,0,1,0,.61C155.9,20.62,154.66,21.53,152.26,21.63Z" transform="translate(0 0.045)"/><path class="cls-1" d="M80.2,21.63a11.85,11.85,0,0,1-1.44,0,6.44,6.44,0,0,1-4.37-1.81h-.08l-3.57,3.35c2,2.55,5.12,3.69,9.08,3.69,5.4,0,9.82-2.95,9.82-8a7.12,7.12,0,0,0-2.6-6,11.41,11.41,0,0,0-5.15-2.22,11.5,11.5,0,0,1-1.27-.27c-.1-.05-1.7-.37-1.79-.48a2.52,2.52,0,0,1-1.53-1,1.87,1.87,0,0,1-.33-1.21c.13-1.18,1.16-2.32,3.27-2.36h.45a5.7,5.7,0,0,1,4.4,1.64l3.59-3.39C86.93,1.35,84.15.17,80.45.17c-5.68,0-9.23,3.33-9.23,7.9a6.68,6.68,0,0,0,2.34,5.43,12,12,0,0,0,5.31,2.36c.12.06,1.27.26,1.35.3s1.58.34,1.68.43a2.65,2.65,0,0,1,1.54.9,2.11,2.11,0,0,1,.38,1,3.16,3.16,0,0,1,0,.61C83.84,20.62,82.6,21.53,80.2,21.63Z" transform="translate(0 0.045)"/><path class="cls-1" d="M57.64,21.63a11.84,11.84,0,0,1-1.44,0,6.44,6.44,0,0,1-4.37-1.81h-.08l-3.57,3.35c2,2.55,5.12,3.69,9.08,3.69,5.4,0,9.82-2.95,9.82-8a7.12,7.12,0,0,0-2.6-6,11.41,11.41,0,0,0-5.15-2.22,11.5,11.5,0,0,1-1.27-.27c-.1-.05-1.7-.37-1.79-.48a2.52,2.52,0,0,1-1.53-1,1.88,1.88,0,0,1-.29-1.23c.13-1.18,1.16-2.32,3.27-2.36h.45a5.7,5.7,0,0,1,4.4,1.64l3.59-3.39C64.37,1.35,61.59.17,57.93.17c-5.68,0-9.23,3.33-9.23,7.9a6.68,6.68,0,0,0,2.34,5.43,12,12,0,0,0,5.31,2.36c.12.06,1.27.26,1.35.3s1.58.34,1.68.43a2.65,2.65,0,0,1,1.54.9,2.11,2.11,0,0,1,.38,1,3.16,3.16,0,0,1,0,.61C61.27,20.62,60.04,21.53,57.64,21.63Z" transform="translate(0 0.045)"/><ellipse class="cls-1" cx="280.6" cy="24.165" rx="2.87" ry="2.86"/></svg>